<?xml version="1.0" standalone="no"?>
<!DOCTYPE svg PUBLIC "-//W3C//DTD SVG 20010904//EN"
 "http://www.w3.org/TR/2001/REC-SVG-20010904/DTD/svg10.dtd">
<svg version="1.0" xmlns="http://www.w3.org/2000/svg"
 width="127.000000pt" height="129.000000pt" viewBox="0 0 127.000000 129.000000"
 preserveAspectRatio="xMidYMid meet">

<g transform="translate(0.000000,129.000000) scale(0.100000,-0.100000)"
fill="#000000" stroke="none">
<path d="M931 844 c0 -11 3 -14 6 -6 3 7 2 16 -1 19 -3 4 -6 -2 -5 -13z"/>
<path d="M980 840 c0 -5 -12 -16 -27 -23 -23 -13 -29 -26 -42 -93 -9 -42 -20
-79 -26 -81 -5 -1 -18 15 -27 37 -15 36 -20 40 -51 40 -39 0 -49 -10 -66 -62
-7 -21 -16 -38 -21 -38 -9 0 -30 62 -30 86 0 6 -9 23 -21 38 -11 14 -17 31
-13 37 4 7 3 9 -3 6 -6 -4 -13 -1 -16 7 -3 7 -19 13 -37 14 -34 1 -41 -10 -81
-122 -8 -22 -19 -41 -25 -43 -5 -2 -19 16 -31 41 -17 35 -28 44 -52 48 -17 3
-35 0 -40 -6 -17 -20 -53 -154 -49 -183 3 -29 35 -45 42 -21 3 7 12 39 21 71
8 31 20 57 25 57 6 0 17 -18 26 -40 14 -33 20 -39 38 -34 14 3 27 -1 35 -10
26 -31 39 -16 62 74 23 89 43 114 54 68 3 -13 10 -43 16 -68 6 -25 16 -69 22
-98 19 -92 87 -108 101 -25 11 61 37 134 46 128 5 -3 12 -20 15 -38 6 -26 31
-92 41 -106 2 -1 19 9 38 24 22 17 36 36 36 50 0 12 4 35 9 51 6 16 15 56 22
89 10 52 13 57 24 41 8 -10 17 -36 20 -59 7 -38 8 -39 21 -22 15 20 19 122 6
141 -4 6 -17 10 -29 9 -27 -2 -31 11 -5 18 13 4 11 5 -5 6 -13 0 -23 -3 -23
-9z m-350 -49 c0 -5 -7 -12 -16 -15 -14 -5 -15 -4 -4 9 14 17 20 19 20 6z"/>
</g>
</svg>
